<?xml version="1.0" standalone="no"?>
<!DOCTYPE svg PUBLIC "-//W3C//DTD SVG 20010904//EN"
 "http://www.w3.org/TR/2001/REC-SVG-20010904/DTD/svg10.dtd">
<svg version="1.0" xmlns="http://www.w3.org/2000/svg"
 width="1280.000000pt" height="1280.000000pt" viewBox="0 0 1280.000000 1280.000000"
 preserveAspectRatio="xMidYMid meet">
<g transform="translate(0.000000,1280.000000) scale(0.100000,-0.100000)"
fill="#000000" stroke="none">
<path d="M6145 12789 c-44 -4 -145 -13 -225 -19 -999 -78 -1969 -390 -2838
-914 -804 -485 -1497 -1151 -2004 -1926 -607 -928 -963 -1964 -1048 -3045 -6
-77 -15 -187 -20 -245 -13 -134 -13 -346 0 -480 5 -58 14 -168 20 -245 93
-1192 534 -2372 1243 -3325 195 -263 339 -431 567 -664 242 -247 426 -408 702
-616 975 -736 2158 -1185 3373 -1280 77 -6 187 -15 245 -20 134 -13 346 -13
480 0 58 5 168 14 245 20 995 78 1966 391 2833 914 804 485 1497 1151 2004
1926 607 928 963 1964 1048 3045 6 77 15 187 20 245 6 58 10 166 10 240 0 74
-4 182 -10 240 -5 58 -14 168 -20 245 -93 1192 -534 2372 -1243 3325 -195 263
-339 431 -567 664 -242 247 -426 408 -702 616 -975 736 -2158 1185 -3373 1280
-77 6 -187 15 -245 20 -121 11 -378 11 -495 -1z m840 -428 c352 -39 586 -82
910 -166 1030 -266 1997 -817 2740 -1560 910 -910 1519 -2140 1699 -3430 43
-309 50 -414 50 -805 0 -391 -7 -496 -50 -805 -180 -1290 -789 -2520 -1699
-3430 -911 -910 -2140 -1519 -3430 -1699 -309 -43 -414 -50 -805 -50 -391 0
-496 7 -805 50 -1290 180 -2519 789 -3430 1699 -910 910 -1519 2140 -1699
3430 -43 309 -50 414 -50 805 0 391 7 496 50 805 180 1290 789 2520 1699 3430
1027 1027 2452 1663 3915 1749 179 10 731 -4 905 -23z"/>
<path d="M4658 9443 l-3 -1258 -1245 -5 -1245 -5 0 -1760 0 -1760 1234 -3
c892 -1 1238 -5 1248 -13 11 -10 13 -221 13 -1235 l0 -1224 1765 0 1765 0 0
1223 c0 938 3 1226 12 1235 9 9 300 12 1250 12 l1238 0 0 1765 0 1765 -1244 0
c-1125 0 -1244 2 -1250 16 -3 9 -6 576 -6 1260 l0 1244 -1765 0 -1765 0 -2
-1257z"/>
</g>
</svg>
